<?xml version="1.0" encoding="UTF-8"?>
<svg xmlns="http://www.w3.org/2000/svg" xmlns:xlink="http://www.w3.org/1999/xlink" width="25px" height="25px" viewBox="0 0 25 25" version="1.1">
<g id="surface1">
<path style=" stroke:none;fill-rule:nonzero;fill:rgb(94.117647%,94.117647%,94.117647%);fill-opacity:1;" d="M 25 12.5 C 25 19.402344 19.402344 25 12.5 25 C 5.597656 25 0 19.402344 0 12.5 C 0 5.597656 5.597656 0 12.5 0 C 19.402344 0 25 5.597656 25 12.5 Z M 25 12.5 "/>
<path style=" stroke:none;fill-rule:nonzero;fill:rgb(0%,32.156863%,70.588235%);fill-opacity:1;" d="M 24.222656 16.847656 C 24.726562 15.492188 25 14.027344 25 12.5 C 25 10.972656 24.726562 9.507812 24.222656 8.152344 L 0.777344 8.152344 C 0.273438 9.507812 0 10.972656 0 12.5 C 0 14.027344 0.273438 15.492188 0.777344 16.847656 L 12.5 17.933594 Z M 24.222656 16.847656 "/>
<path style=" stroke:none;fill-rule:nonzero;fill:rgb(84.705882%,0%,15.294118%);fill-opacity:1;" d="M 12.5 25 C 17.875 25 22.457031 21.609375 24.222656 16.847656 L 0.777344 16.847656 C 2.542969 21.609375 7.125 25 12.5 25 Z M 12.5 25 "/>
</g>
</svg>
